<?xml version="1.0" encoding="UTF-8"?>
<svg xmlns="http://www.w3.org/2000/svg" xmlns:xlink="http://www.w3.org/1999/xlink" width="800px" height="800px" viewBox="0 0 800 800" version="1.1">
<g id="surface1">
<path style=" stroke:none;fill-rule:nonzero;fill:rgb(100%,100%,100%);fill-opacity:1;" d="M 718.15625 525.898438 C 718.15625 525.898438 717.101562 519.414062 716.480469 519.472656 L 598.816406 530.828125 C 589.453125 531.730469 582.183594 539.199219 581.527344 548.578125 L 578.292969 594.910156 L 487.261719 601.40625 L 481.070312 559.414062 C 479.691406 550.074219 471.535156 543.035156 462.09375 543.035156 L 337.90625 543.035156 C 328.46875 543.035156 320.3125 550.074219 318.933594 559.414062 L 312.738281 601.40625 L 221.707031 594.910156 L 218.472656 548.578125 C 217.816406 539.195312 210.546875 531.726562 201.183594 530.824219 L 83.460938 519.472656 C 82.851562 519.414062 82.40625 525.90625 81.796875 525.90625 L 81.636719 551.371094 L 181.339844 567.449219 L 184.605469 614.191406 C 185.265625 623.65625 192.898438 631.308594 202.371094 631.988281 L 327.738281 640.929688 C 328.214844 640.964844 328.683594 640.984375 329.152344 640.984375 C 338.570312 640.984375 346.714844 633.9375 348.09375 624.597656 L 354.464844 581.394531 L 445.539062 581.394531 L 451.910156 624.597656 C 453.285156 633.9375 461.4375 640.980469 470.871094 640.980469 C 471.332031 640.980469 471.796875 640.964844 472.246094 640.929688 L 597.632812 631.988281 C 607.097656 631.308594 614.738281 623.65625 615.398438 614.191406 L 618.660156 567.449219 L 718.320312 551.296875 Z M 718.15625 525.898438 "/>
<path style=" stroke:none;fill-rule:nonzero;fill:rgb(27.843139%,54.901963%,74.901962%);fill-opacity:1;" d="M 81.796875 333.894531 L 81.796875 525.898438 C 82.148438 525.902344 82.5 525.917969 82.847656 525.949219 L 200.558594 537.296875 C 206.722656 537.894531 211.554688 542.855469 211.984375 549.035156 L 215.613281 600.996094 L 318.292969 608.324219 L 325.367188 560.363281 C 326.285156 554.148438 331.617188 549.539062 337.90625 549.539062 L 462.097656 549.539062 C 468.382812 549.539062 473.714844 554.148438 474.632812 560.363281 L 481.707031 608.324219 L 584.390625 600.996094 L 588.015625 549.035156 C 588.449219 542.855469 593.277344 537.898438 599.441406 537.296875 L 717.109375 525.949219 C 717.457031 525.917969 717.804688 525.902344 718.15625 525.898438 L 718.15625 510.578125 L 718.203125 510.5625 L 718.203125 333.894531 C 734.78125 313.03125 750.476562 290.011719 762.5 270.648438 C 744.121094 239.363281 721.605469 211.40625 697.539062 185.503906 C 675.214844 196.738281 653.535156 209.464844 633.054688 223.011719 C 622.808594 212.824219 611.265625 204.496094 599.929688 195.785156 C 588.792969 186.839844 576.238281 180.28125 564.332031 172.636719 C 567.878906 146.242188 569.632812 120.253906 570.335938 93.132812 C 539.617188 77.671875 506.859375 67.421875 473.726562 60.058594 C 460.496094 82.292969 448.398438 106.371094 437.863281 129.910156 C 425.367188 127.820312 412.816406 127.046875 400.246094 126.898438 L 400.246094 126.878906 C 400.15625 126.878906 400.078125 126.898438 400 126.898438 C 399.921875 126.898438 399.84375 126.878906 399.765625 126.878906 L 399.765625 126.898438 C 387.171875 127.046875 374.628906 127.820312 362.132812 129.910156 C 351.601562 106.371094 339.511719 82.292969 326.261719 60.058594 C 293.144531 67.421875 260.382812 77.671875 229.667969 93.132812 C 230.367188 120.253906 232.121094 146.242188 235.675781 172.636719 C 223.746094 180.28125 211.210938 186.839844 200.070312 195.785156 C 188.75 204.496094 177.1875 212.824219 166.9375 223.011719 C 146.460938 209.464844 124.785156 196.738281 102.457031 185.503906 C 78.386719 211.40625 55.882812 239.363281 37.5 270.648438 C 51.949219 293.324219 67.445312 316.121094 81.796875 333.894531 Z M 81.796875 333.894531 "/>
<path style=" stroke:none;fill-rule:nonzero;fill:rgb(27.843139%,54.901963%,74.901962%);fill-opacity:1;" d="M 612.554688 561.503906 L 608.910156 613.738281 C 608.472656 620.035156 603.464844 625.046875 597.167969 625.5 L 471.785156 634.445312 C 471.480469 634.46875 471.171875 634.476562 470.871094 634.476562 C 464.640625 634.476562 459.265625 629.90625 458.34375 623.648438 L 451.152344 574.886719 L 348.847656 574.886719 L 341.65625 623.648438 C 340.691406 630.210938 334.824219 634.929688 328.21875 634.445312 L 202.835938 625.5 C 196.539062 625.046875 191.53125 620.035156 191.089844 613.738281 L 187.445312 561.503906 L 81.601562 551.296875 C 81.652344 562.671875 81.796875 575.136719 81.796875 577.617188 C 81.796875 689.402344 223.601562 743.132812 399.785156 743.75 L 400.21875 743.75 C 576.398438 743.132812 718.15625 689.402344 718.15625 577.617188 C 718.15625 575.089844 718.308594 562.679688 718.359375 551.296875 Z M 612.554688 561.503906 "/>
<path style=" stroke:none;fill-rule:nonzero;fill:rgb(100%,100%,100%);fill-opacity:1;" d="M 304.074219 411.835938 C 304.074219 451.03125 272.316406 482.78125 233.136719 482.78125 C 193.976562 482.78125 162.210938 451.03125 162.210938 411.835938 C 162.210938 372.667969 193.976562 340.9375 233.136719 340.9375 C 272.316406 340.9375 304.074219 372.667969 304.074219 411.835938 "/>
<path style=" stroke:none;fill-rule:nonzero;fill:rgb(25.490198%,25.098041%,25.882354%);fill-opacity:1;" d="M 287.003906 416.042969 C 287.003906 442.042969 265.933594 463.113281 239.917969 463.113281 C 213.914062 463.113281 192.832031 442.042969 192.832031 416.042969 C 192.832031 390.046875 213.914062 368.957031 239.917969 368.957031 C 265.933594 368.957031 287.003906 390.046875 287.003906 416.042969 "/>
<path style=" stroke:none;fill-rule:nonzero;fill:rgb(100%,100%,100%);fill-opacity:1;" d="M 399.996094 489.234375 C 387.382812 489.234375 377.164062 479.941406 377.164062 468.484375 L 377.164062 403.179688 C 377.164062 391.730469 387.382812 382.425781 399.996094 382.425781 C 412.605469 382.425781 422.851562 391.730469 422.851562 403.179688 L 422.851562 468.484375 C 422.851562 479.941406 412.605469 489.234375 399.996094 489.234375 "/>
<path style=" stroke:none;fill-rule:nonzero;fill:rgb(100%,100%,100%);fill-opacity:1;" d="M 495.925781 411.835938 C 495.925781 451.03125 527.683594 482.78125 566.871094 482.78125 C 606.027344 482.78125 637.792969 451.03125 637.792969 411.835938 C 637.792969 372.667969 606.027344 340.9375 566.871094 340.9375 C 527.683594 340.9375 495.925781 372.667969 495.925781 411.835938 "/>
<path style=" stroke:none;fill-rule:nonzero;fill:rgb(25.490198%,25.098041%,25.882354%);fill-opacity:1;" d="M 513 416.042969 C 513 442.042969 534.0625 463.113281 560.0625 463.113281 C 586.082031 463.113281 607.148438 442.042969 607.148438 416.042969 C 607.148438 390.046875 586.082031 368.957031 560.0625 368.957031 C 534.0625 368.957031 513 390.046875 513 416.042969 "/>
</g>
</svg>
